<svg xmlns="http://www.w3.org/2000/svg" viewBox="0 0 226.304 43.209" height="163.31" width="855.323">
  <path d="M144.078 9.583a.121.121 0 00-.066.027c-1.145.955-2.17 2.049-3.137 3.174a.121.121 0 00-.002.002c-.86 1.079-1.837 2.245-2.035 3.701-.072.469.11.882.41 1.178.3.296.712.483 1.125.537.174.029.32.004.428-.066a.37.37 0 00.17-.305c0-.228-.21-.435-.538-.455-.566-.165-.895-.801-.712-1.361.496-1.575 1.636-2.857 2.761-4.067l.004-.006c.501-.481.946-1.047 1.477-1.412 1.017.478 1.955 1.478 1.896 2.639-.163 1.325-1.262 2.302-2.285 3.125-.185.113-.422.33-.638.5a1.91 1.91 0 01-.237.162c.216-.483.309-.92.33-1.354.025-.49-.009-.987.045-1.593a.122.122 0 00-.242-.024c-.273 2.419-1.67 4.592-3.5 6.164-1.928 1.278-.984.632-2.885 1.97a.121.121 0 00.13.204c.388-.214.595-.308.694-.34.049-.015.068-.013.065-.013h.002c.018.013.057.04.105.043.054.002.1-.011.164-.037.128-.052.33-.163.713-.397a.121.121 0 00.008-.006c1.717-1.24 4.07-1.472 6.026-.683a.121.121 0 00.105-.215c-.483-.283-.645-.48-.853-.647-.157-.126-.383-.218-.705-.293.785-.437 1.646-.787 2.533-.754.784.02 1.434.527 1.754 1.235.131.286.372.624.511.941.07.159.111.309.11.436a.414.414 0 01-.135.312c-1.577.502-3.227.96-4.865.733a.121.121 0 00-.004-.002 1.214 1.214 0 01-.89-.534 1.826 1.826 0 01-.304-1.043.121.121 0 00-.025-.074.533.533 0 00-.205-.174.307.307 0 00-.234-.007c-.143.057-.222.191-.28.341-.057.15-.088.326-.09.494 0 .169.025.332.112.46l-.02-.043c.087.412.341.722.658.937.317.215.698.338 1.065.39a.121.121 0 00.004.003c1.441.153 2.886-.157 4.248-.55a.121.121 0 00.031-.013c.223-.139.694-.203 1.102-.318.204-.058.397-.131.543-.258a.615.615 0 00.203-.553.121.121 0 000-.008c-.25-1.264-.8-2.745-2.143-3.265a.121.121 0 00-.006-.002c-1.554-.506-3.14.245-4.402 1.045a.121.121 0 00-.014.008c-.222.184-.486.248-.781.289-.276.037-.572.057-.863.142l.064-.058a.121.121 0 00.002-.002c.622-.58 1.068-1.297 1.639-1.86 1.247-.845 2.572-1.664 3.523-2.902l.002-.002c.36-.448.693-1.001.86-1.59.165-.586.16-1.214-.166-1.783-.454-.996-1.392-1.62-2.29-2.108a.121.121 0 00-.07-.015z" paint-order="markers stroke fill"/>
  <text style="line-height:1.25;-inkscape-font-specification:'Lobster Two'" x="44.377" y="70.413" font-weight="400" font-size="10.583" font-family="Lobster Two" letter-spacing="0" word-spacing="0" stroke-width=".265" transform="translate(19.81 -93.777)"/>
  <text style="line-height:1.25;-inkscape-font-specification:'Lobster Two'" x="-20.572" y="133.697" font-weight="400" font-size="10.583" font-family="Lobster Two" letter-spacing="0" word-spacing="0" stroke-width=".07" stroke-dasharray=".07 .07" transform="translate(19.81 -93.777)">
    <tspan x="-20.572" y="133.697" style="-inkscape-font-specification:'Lobster Two'" font-size="42.333">DTUrt<tspan letter-spacing=".265">l</tspan>e</tspan>
  </text>
  <path d="M214.62 43.19c-1.387-.216-2.7-1.044-4.015-2.533-.691-.783-2.09-2.58-3.446-4.429l-1.032-1.406-.357.047c-.197.026-1.34.222-2.54.437-3.342.597-4.628.696-9.843.765-4.213.055-5.97-.022-8.312-.36l-1.525-.22-.295.481c-2.814 4.603-3.4 5.297-5.21 6.162-4.77 2.28-10.85-1.26-11.146-6.491-.083-1.474.2-2.6 1.142-4.543.563-1.162.587-1.232.449-1.34-.36-.278-2.468-1.226-3.44-1.547-1.944-.64-3.873-1.018-7.155-1.4-3.197-.372-4.576-.696-5.942-1.398-2.113-1.086-3.685-3.447-4.092-6.145-.403-2.673.408-5.425 2.176-7.391 1.364-1.515 3.813-2.609 5.846-2.61 1.186 0 2.795.395 4.506 1.107.403.168 1.732.786 2.955 1.374 2.723 1.309 3.279 1.558 4.27 1.917l.78.281.122-.296c.329-.796.998-2.117 1.402-2.769 3.19-5.142 9.603-9.022 17.159-10.38 9.017-1.621 18.785.74 25.638 6.199 1.085.864 2.914 2.678 3.708 3.678a20.76 20.76 0 013.195 5.711c.198.544.453 1.129.566 1.3.202.305.212.31.575.258 1.371-.196 1.72-.215 2.341-.133.888.119 1.5.43 2.082 1.059 1.113 1.201 1.432 2.865.806 4.202-.377.805-2.899 3.36-4.86 4.924-.436.348-.805.665-.82.704-.014.039.293.509.683 1.044 1.997 2.741 2.599 3.845 2.843 5.217.399 2.233-.344 4.454-2.027 6.062-1.699 1.623-3.58 2.404-5.957 2.472-.545.015-1.099.011-1.23-.01zm2.12-4.722c.957-.203 1.985-.916 2.326-1.612.185-.377.21-.514.18-.938-.045-.593-.263-1.186-.712-1.93-.535-.89-2.13-3.05-2.25-3.05-.167 0-.773.25-2.775 1.147-1.004.45-2.05.898-2.323.997-.336.121-.474.208-.428.268l1.263 1.683c1.402 1.872 2.32 2.992 2.607 3.18.477.312 1.347.418 2.111.255zM175.991 38c.516-.223 1.008-.754 1.794-1.943.67-1.013.883-1.372.833-1.413a56.63 56.63 0 00-1.623-.65 171.471 171.471 0 01-4.29-1.756c-.046-.02-.27.35-.495.82-1.018 2.12-.85 3.248.664 4.477.708.574.849.644 1.423.7.627.062 1.183-.016 1.694-.235zm19.58-6.43c5.737-.371 13.425-1.708 18.012-3.133 5.937-1.843 9.237-4.004 10.645-6.967.472-.994.324-1.282-.545-1.068-.84.208-1.97.678-6.96 2.898-6.394 2.844-6.439 2.86-9.208 3.423-3.417.693-6.397 1.106-9.287 1.286-1.878.117-6.1.047-7.461-.123-2.045-.256-4.946-.864-7.62-1.596-2.768-.758-3.977-1.233-7.077-2.778-2.356-1.173-3.874-2.043-5.645-3.231-1.475-.991-2.614-1.605-3.86-2.08-1.136-.434-2.657-1.098-4.382-1.915-3.435-1.626-3.94-1.854-4.532-2.052-1.498-.502-3.179-.272-4.105.56-.796.716-1.151 1.853-1.102 3.526.026.888.052 1.042.243 1.429a3.709 3.709 0 002.073 1.86c.678.256 1.517.402 3.463.6 2.642.271 5.274.757 7.511 1.388 1.705.48 2.436.82 5.546 2.578 1.718.97 2.539 1.39 3.88 1.982 4.241 1.87 9.194 3.05 14.297 3.406 1.398.097 4.656.101 6.113.007zm-40.225-13.318c-.12-.014-.219-.062-.219-.108 0-.045-.053-.062-.117-.037-.07.027-.153-.02-.203-.113-.046-.087-.118-.137-.16-.111-.041.025-.075-.01-.075-.08a.2.2 0 00-.12-.172c-.065-.025-.118-.13-.118-.235 0-.105-.033-.19-.074-.19-.098 0-.036-.795.07-.901a.307.307 0 00.083-.186c0-.135.249-.421.366-.421.051 0 .114-.054.14-.12.025-.066.073-.112.107-.102.034.01.133-.02.22-.067.2-.106.802-.075.952.05.062.051.15.07.196.042.046-.029.105.004.131.072.027.069.098.124.159.124.06 0 .11.055.11.122s.056.143.124.169c.068.026.106.094.084.15-.022.057.006.141.061.187.122.101.098.983-.027 1.025-.046.015-.083.092-.083.171 0 .08-.054.164-.12.19a.196.196 0 00-.118.167c0 .07-.07.121-.164.121-.09 0-.14.036-.114.08.028.045-.039.08-.154.08-.112 0-.203.028-.203.063 0 .063-.327.077-.734.03zm43.51 5.347c1.11-.027 2.038-.062 2.064-.077.025-.015.368-.051.76-.08.852-.065 2.065-.19 2.342-.243.11-.02.306-.054.437-.075.131-.02.792-.127 1.468-.237.677-.11 1.374-.221 1.548-.248 2.249-.342 4.914-1.274 6.231-2.18.19-.13.587-.35 1.905-1.053.328-.175.604-.324.615-.333.047-.036-1.24-2.533-1.698-3.296-1.294-2.153-1.524-2.484-2.324-3.35-.455-.494-1.116-1.211-1.468-1.596-.468-.51-.824-.808-1.316-1.104a41.234 41.234 0 01-1.35-.855c-.932-.621-5.463-2.89-6.111-3.06a81.428 81.428 0 01-1.151-.351c-1.179-.365-1.603-.448-2.66-.523-.414-.029-.771-.063-.793-.075-.022-.012-.415-.048-.873-.08-.459-.03-.851-.067-.873-.08-.05-.03-2.868-.149-3.572-.152-.673-.003-2.898.109-3.255.163-.257.039-1.983.506-2.897.784-3.946 1.2-4.528 1.41-5.506 1.976-.497.289-.913.524-.924.524-.01 0-.433.241-.939.536-.797.465-1.152.75-2.673 2.155-.964.89-1.853 1.765-1.975 1.945-.445.655-.865 1.724-1.081 2.753-.175.832-.184.809.458 1.187.316.187.79.471 1.052.632.261.162 1.1.661 1.865 1.11.764.45 1.522.902 1.685 1.005.163.103.574.297.913.432.34.135.652.272.696.305.099.074 1.793.747 2.222.882.175.055.46.147.635.205.85.28 3.343.992 3.973 1.135a261.248 261.248 0 012.298.532c.087.02.552.09 1.032.153a254.32 254.32 0 011.706.233c.197.027.447.063.556.08.485.075 2.223.234 3.572.325.415.028.765.06.778.072.013.012.156.01.318-.003a101.12 101.12 0 012.31-.073zm6.912-2.619c-.847-.283-1.082-.395-1.842-.885-1.077-.693-2.235-1.995-2.833-3.187-.093-.185-.213-.337-.267-.336-.054 0-.49.358-.97.796-1.847 1.682-3.364 2.454-5.082 2.587-1.17.09-2.482-.258-3.53-.938-.593-.384-1.715-1.48-2.464-2.407-.298-.368-.636-.694-.803-.776-.272-.133-.31-.134-.615-.011-.18.071-.778.48-1.33.909-1.596 1.24-2.972 1.823-4.302 1.823-.958 0-1.55-.399-1.36-.916.1-.268.264-.35 1.04-.517 1.16-.25 1.25-.354 1.547-1.812.255-1.257.42-2.73.48-4.3l.051-1.316-.653-.27c-1.07-.441-1.468-.926-1.23-1.495.167-.395.53-.513 1.117-.363.609.155 1.817.738 2.346 1.132.472.351 1.249 1.15 2.111 2.173.319.377.705.782.86.9l.279.213.274-.195c.15-.107.636-.526 1.078-.931 1.662-1.52 3.175-2.22 4.816-2.223 1.686-.004 3.094.83 5.287 3.13.69.722 1.294 1.313 1.344 1.313.05 0 .52-.324 1.042-.72 2.126-1.61 3.342-2.133 4.974-2.136.791-.002 1.035.069 1.22.353.114.172.118.238.033.444-.121.294-.38.435-1.086.594-.846.19-.965.256-1.05.582-.213.806-.612 4.049-.684 5.566-.06 1.257-.025 1.323.978 1.856.396.21.798.466.894.568.234.25.16.528-.198.75-.507.313-.657.318-1.472.045zM194.692 18c.2-.2.472-1.91.757-4.76.179-1.79.202-2.634.079-2.865-.073-.136-.173-.153-.88-.153-.769 0-.805.008-1.021.224a1.47 1.47 0 00-.314.536c-.252.882-.655 4.07-.771 6.106-.052.906-.051.909.139.988.304.128 1.867.068 2.011-.076zm9.137-.83c.127-.305.389-2.244.474-3.515.06-.881.048-.905-.35-.7-.354.184-1.377 1.324-1.622 1.808-.206.409-.216.47-.13.788.189.701.692 1.47 1.143 1.745.326.199.352.192.485-.127zm-5.938-.167c.789-.392 1.764-1.662 1.766-2.299.002-.48-1.07-2.37-1.665-2.934-.234-.223-.258-.23-.354-.098-.236.32-.662 2.923-.734 4.483l-.048 1.052h.314c.177 0 .49-.088.721-.204zm-6.895-.912c.08-.228.265-2.07.36-3.567.057-.887.002-.97-.443-.677-.564.37-1.3 1.172-1.459 1.589-.124.324-.131.437-.053.811.114.54.57 1.37.979 1.778.372.372.504.386.616.066zm-5.196-1.227c.56-.534 1-1.165 1-1.437 0-.39-1.263-2.454-1.56-2.548-.048-.016-.112.093-.14.243-.089.473-.283 3.078-.284 3.807l-.001.7.24-.142c.13-.078.466-.358.745-.623z"/>
</svg>
